<svg width="141" height="44" viewBox="0 0 141 44" fill="none" xmlns="http://www.w3.org/2000/svg">
<g clip-path="url(#clip0_3524_427)">
<path d="M141 30.049H135.039V29.5315C135.039 25.997 135.051 22.4625 135.034 18.9279C135.034 18.0415 134.989 17.1441 134.866 16.2633C134.631 14.6006 133.556 13.6426 131.86 13.4114C130.478 13.2187 129.168 13.4334 127.87 14.0225C127.154 12.7893 126.448 11.5671 125.738 10.3448C127.187 8.98497 128.922 8.36836 130.87 8.26375C132.213 8.19218 133.545 8.31881 134.855 8.6161C137.743 9.27676 139.528 11.0716 140.289 13.8353C140.603 14.9584 140.715 16.1366 140.916 17.2873C140.95 17.469 140.972 17.6451 141 17.8268V30.049Z" fill="#FEFEFE"/>
<path d="M19.0403 0.044044C16.365 6.48549 13.7065 12.8939 11.0313 19.3408H20.4955C20.4339 19.1757 20.3835 19.0325 20.3276 18.8949C19.0067 15.7513 17.6859 12.6021 16.3538 9.46396C16.2307 9.17768 16.2699 9.02903 16.5105 8.83083C18.0049 7.58659 19.4824 6.32583 20.9656 5.07057C21.0383 5.01001 21.1223 4.95496 21.2286 4.87237C24.7098 13.2628 28.1743 21.6256 31.6611 30.0325C31.4764 30.0435 31.3532 30.0546 31.2245 30.0546C29.3104 30.0546 27.3963 30.049 25.4822 30.0601C25.1912 30.0601 25.0568 29.9665 24.9449 29.7077C24.2789 28.1441 23.5849 26.5916 22.9189 25.0335C22.8125 24.7858 22.6894 24.7032 22.4152 24.7032C17.9937 24.7142 13.5722 24.7142 9.15635 24.7032C8.85972 24.7032 8.731 24.8023 8.62466 25.0611C7.94185 26.7237 7.23665 28.3754 6.53705 30.0435H0C0.0447743 29.9169 0.0727583 29.8013 0.117533 29.6912C4.192 19.9134 8.26646 10.1411 12.3409 0.368869C12.4249 0.170671 12.4808 0 12.7775 0C14.7923 0.0165165 16.8072 0.00550551 18.8276 0.011011C18.878 0.011011 18.9339 0.0275275 19.0459 0.044044" fill="#FEFEFE"/>
<path d="M59.0909 11.4239V0.0385437H64.85V30.0215H59.0853V29.5315C59.0853 26.1952 59.1021 22.8534 59.0853 19.517C59.0685 16.9184 57.8428 14.975 55.453 13.9234C53.0128 12.8499 50.0689 13.3839 48.3283 15.6081C47.0746 17.2102 46.5149 18.9885 47.1586 20.976C48.1044 23.8884 50.8524 25.6557 53.7908 25.2372C54.3392 25.1602 54.8821 25.0446 55.4866 24.9344C56.1526 26.1622 56.8466 27.4394 57.5574 28.7498C56.6899 29.4379 55.7273 29.9169 54.6639 30.1206C50.1528 30.996 46.431 29.6857 43.4423 26.2337C40.0842 22.3579 40.0506 15.966 43.8844 11.9855C46.8172 8.93544 50.3543 7.7958 54.5239 8.57208C56.2366 8.8914 57.6358 9.78879 58.7495 11.1101C58.8335 11.2092 58.9174 11.3028 59.0014 11.3964C59.007 11.4019 59.0238 11.4019 59.0965 11.4184" fill="#FEFEFE"/>
<path d="M81.4557 24.8298C82.1609 26.0851 82.8549 27.3183 83.5601 28.546C83.7056 28.7993 83.5265 28.8709 83.381 28.9755C82.1609 29.8233 80.7897 30.2527 79.3122 30.3629C76.3794 30.5886 73.693 29.8784 71.4039 28.0505C68.6447 25.8483 67.0944 23.0075 67.0552 19.4675C66.9936 13.9454 71.1408 9.16666 76.7153 8.35735C78.7301 8.06556 80.7058 8.22521 82.5527 9.18868C83.5881 9.72822 84.4276 10.4935 85.256 11.4349V8.6106H90.9423V30.0325H85.2727V29.548C85.2727 26.1952 85.2839 22.8423 85.2727 19.4895C85.256 16.8358 83.9967 14.8814 81.5453 13.8298C79.3289 12.8829 77.1798 13.2407 75.2601 14.7272C72.999 16.478 72.333 19.6601 73.7937 22.2257C75.0642 24.4609 78.2488 26.1677 81.4501 24.8298" fill="#FEFEFE"/>
<path d="M38.6794 0.0385437H32.9931V30.027H38.6794V0.0385437Z" fill="#FEFEFE"/>
<path d="M103.188 14.0005C102.477 12.7673 101.772 11.5561 101.067 10.3394C102.466 9.02904 104.14 8.3904 106.02 8.27479C107.789 8.16468 109.529 8.34085 111.208 8.92443C113.654 9.77779 114.975 11.6001 115.669 13.951C116.184 15.6907 116.313 17.48 116.318 19.2803C116.324 22.7433 116.318 26.2117 116.318 29.6747C116.318 29.7848 116.307 29.8949 116.296 30.0325H110.358C110.358 29.8564 110.358 29.6802 110.358 29.4985C110.346 25.5676 110.341 21.6366 110.313 17.7057C110.313 17.1717 110.262 16.6266 110.15 16.1091C109.809 14.4905 108.807 13.6096 107.139 13.4169C105.645 13.2463 105.029 13.3343 103.177 14.006" fill="#FEFEFE"/>
<path d="M124.652 8.6106H118.742V30.027H124.652V8.6106Z" fill="#FEFEFE"/>
<path d="M99.9755 8.6051H94.0653V30.0325H99.9755V8.6051Z" fill="#FEFEFE"/>
<path d="M92.1512 38.8193C92.1512 38.6487 92.2912 38.511 92.4591 38.511H94.0598C95.7836 38.511 96.9757 39.6782 96.9757 41.1977V41.2142C96.9757 42.7337 95.7836 43.9119 94.0598 43.9119H92.4591C92.2968 43.9119 92.1512 43.7743 92.1512 43.6036V38.8248V38.8193ZM94.0542 43.3449C95.4422 43.3449 96.3265 42.4199 96.3265 41.2252V41.2087C96.3265 40.014 95.4422 39.0726 94.0542 39.0726H92.7669V43.3449H94.0542Z" fill="#FEFEFE"/>
<path d="M98.2797 43.5981V38.8193C98.2797 38.6487 98.4196 38.511 98.5875 38.511H101.996C102.153 38.511 102.276 38.6321 102.276 38.7863C102.276 38.9404 102.153 39.0616 101.996 39.0616H98.9009V40.9059H101.643C101.8 40.9059 101.923 41.038 101.923 41.1812C101.923 41.3353 101.8 41.4565 101.643 41.4565H98.9009V43.3449H102.035C102.192 43.3449 102.315 43.466 102.315 43.6201C102.315 43.7743 102.192 43.8954 102.035 43.8954H98.5875C98.4252 43.8954 98.2797 43.7578 98.2797 43.5871V43.5981Z" fill="#FEFEFE"/>
<path d="M103.334 43.2623C103.261 43.2182 103.216 43.1301 103.216 43.031C103.216 42.8604 103.35 42.7282 103.513 42.7282C103.591 42.7282 103.664 42.7613 103.703 42.7998C104.218 43.2292 104.738 43.4384 105.438 43.4384C106.177 43.4384 106.658 43.0531 106.658 42.519V42.5025C106.658 42.0015 106.384 41.7152 105.231 41.4785C103.966 41.2087 103.39 40.8068 103.39 39.9204V39.9039C103.39 39.0561 104.151 38.4284 105.192 38.4284C105.914 38.4284 106.44 38.6046 106.938 38.9625C107 39.0065 107.072 39.0946 107.072 39.2102C107.072 39.3699 106.938 39.502 106.776 39.502C106.703 39.502 106.653 39.4855 106.597 39.447C106.132 39.1166 105.69 38.979 105.175 38.979C104.464 38.979 104.005 39.3644 104.005 39.8489V39.8654C104.005 40.3719 104.285 40.6582 105.494 40.9169C106.72 41.1812 107.279 41.6161 107.279 42.4419V42.4585C107.279 43.3834 106.496 43.9835 105.404 43.9835C104.604 43.9835 103.938 43.7357 103.328 43.2568L103.334 43.2623Z" fill="#FEFEFE"/>
<path d="M108.544 38.8193C108.544 38.6487 108.684 38.511 108.852 38.511H110.453C112.177 38.511 113.369 39.6782 113.369 41.1977V41.2142C113.369 42.7337 112.177 43.9119 110.453 43.9119H108.852C108.69 43.9119 108.544 43.7743 108.544 43.6036V38.8248V38.8193ZM110.447 43.3449C111.835 43.3449 112.719 42.4199 112.719 41.2252V41.2087C112.719 40.014 111.835 39.0726 110.447 39.0726H109.16V43.3449H110.447Z" fill="#FEFEFE"/>
<path d="M114.673 43.5981V38.8193C114.673 38.6487 114.813 38.511 114.981 38.511H118.389C118.546 38.511 118.669 38.6321 118.669 38.7863C118.669 38.9404 118.546 39.0616 118.389 39.0616H115.294V40.9059H118.036C118.193 40.9059 118.316 41.038 118.316 41.1812C118.316 41.3353 118.193 41.4565 118.036 41.4565H115.294V43.3449H118.428C118.585 43.3449 118.708 43.466 118.708 43.6201C118.708 43.7743 118.585 43.8954 118.428 43.8954H114.981C114.818 43.8954 114.673 43.7578 114.673 43.5871V43.5981Z" fill="#FEFEFE"/>
<path d="M122.9 39.0781L122.133 39.3258C122.088 39.3424 122.038 39.3479 121.999 39.3479C121.859 39.3479 121.73 39.2322 121.73 39.0836C121.73 38.9515 121.814 38.8689 121.948 38.8193L122.85 38.511C122.973 38.4725 123.085 38.4395 123.185 38.4395H123.202C123.381 38.4395 123.51 38.5771 123.51 38.7423V43.6311C123.51 43.8018 123.376 43.9395 123.202 43.9395C123.029 43.9395 122.894 43.8018 122.894 43.6311V39.0726L122.9 39.0781Z" fill="#FEFEFE"/>
<path d="M125.083 43.4605C124.999 43.3999 124.943 43.3228 124.943 43.2127C124.943 43.0531 125.077 42.9209 125.239 42.9209C125.312 42.9209 125.374 42.9429 125.435 42.9815C125.822 43.2898 126.197 43.4439 126.627 43.4439C127.613 43.4439 128.284 42.4585 128.256 41.0766C127.96 41.5445 127.461 41.9409 126.706 41.9409C125.575 41.9409 124.792 41.2417 124.792 40.2673V40.2508C124.792 39.2267 125.598 38.4174 126.767 38.4174C127.394 38.4174 127.859 38.6266 128.211 38.9735C128.626 39.3809 128.894 39.981 128.894 41.0656V41.0821C128.894 42.7943 127.971 44.0055 126.611 44.0055C125.984 44.0055 125.497 43.7743 125.083 43.466V43.4605ZM128.139 40.2012V40.1847C128.139 39.4965 127.568 38.957 126.745 38.957C125.922 38.957 125.43 39.5516 125.43 40.2232V40.2397C125.43 40.9279 125.978 41.4179 126.779 41.4179C127.579 41.4179 128.144 40.8178 128.144 40.2012H128.139Z" fill="#FEFEFE"/>
<path d="M130.153 43.4605C130.07 43.3999 130.014 43.3228 130.014 43.2127C130.014 43.0531 130.148 42.9209 130.31 42.9209C130.383 42.9209 130.444 42.9429 130.506 42.9815C130.892 43.2898 131.267 43.4439 131.698 43.4439C132.683 43.4439 133.355 42.4585 133.327 41.0766C133.03 41.5445 132.532 41.9409 131.777 41.9409C130.646 41.9409 129.862 41.2417 129.862 40.2673V40.2508C129.862 39.2267 130.668 38.4174 131.838 38.4174C132.465 38.4174 132.929 38.6266 133.282 38.9735C133.696 39.3809 133.965 39.981 133.965 41.0656V41.0821C133.965 42.7943 133.041 44.0055 131.681 44.0055C131.055 44.0055 130.568 43.7743 130.153 43.466V43.4605ZM133.209 40.2012V40.1847C133.209 39.4965 132.638 38.957 131.816 38.957C130.993 38.957 130.5 39.5516 130.5 40.2232V40.2397C130.5 40.9279 131.049 41.4179 131.849 41.4179C132.65 41.4179 133.215 40.8178 133.215 40.2012H133.209Z" fill="#FEFEFE"/>
<path d="M134.849 42.4585V42.4419C134.849 41.8033 135.319 41.3464 135.98 41.1151C135.47 40.8839 135.039 40.4985 135.039 39.8709V39.8544C135.039 39.023 135.907 38.4284 136.914 38.4284C137.922 38.4284 138.789 39.023 138.789 39.8544V39.8709C138.789 40.493 138.358 40.8784 137.849 41.1151C138.498 41.3519 138.98 41.7923 138.98 42.4309V42.4475C138.98 43.3669 138.084 43.9835 136.92 43.9835C135.756 43.9835 134.86 43.3614 134.86 42.4585H134.849ZM138.347 42.4419V42.4254C138.347 41.8253 137.715 41.4014 136.914 41.4014C136.114 41.4014 135.482 41.8253 135.482 42.4254V42.4419C135.482 42.9815 136.013 43.4495 136.914 43.4495C137.815 43.4495 138.347 42.987 138.347 42.4419ZM138.168 39.9149V39.8984C138.168 39.3644 137.625 38.968 136.914 38.968C136.204 38.968 135.661 39.3589 135.661 39.8984V39.9149C135.661 40.4985 136.22 40.9004 136.914 40.9004C137.608 40.9004 138.168 40.4985 138.168 39.9149Z" fill="#FEFEFE"/>
</g>
<defs>
<clipPath id="clip0_3524_427">
<rect width="141" height="44" fill="white"/>
</clipPath>
</defs>
</svg>
